<svg width="32" height="32" viewBox="0 0 32 32" fill="none" xmlns="http://www.w3.org/2000/svg">
<path d="M16 14.6667C15.6464 14.6667 15.3073 14.8071 15.0572 15.0572C14.8072 15.3072 14.6667 15.6464 14.6667 16V21.3333C14.6667 21.687 14.8072 22.0261 15.0572 22.2761C15.3073 22.5262 15.6464 22.6667 16 22.6667C16.3536 22.6667 16.6928 22.5262 16.9428 22.2761C17.1929 22.0261 17.3334 21.687 17.3334 21.3333V16C17.3334 15.6464 17.1929 15.3072 16.9428 15.0572C16.6928 14.8071 16.3536 14.6667 16 14.6667ZM16.5067 9.44C16.1821 9.30664 15.818 9.30664 15.4934 9.44C15.3297 9.50346 15.1802 9.59861 15.0534 9.72C14.9356 9.8496 14.8409 9.99842 14.7734 10.16C14.6987 10.3182 14.6622 10.4918 14.6667 10.6667C14.6657 10.8421 14.6993 11.0161 14.7657 11.1785C14.832 11.341 14.9298 11.4887 15.0534 11.6133C15.183 11.7311 15.3318 11.8258 15.4934 11.8933C15.6954 11.9763 15.9146 12.0084 16.132 11.9868C16.3493 11.9652 16.5579 11.8906 16.7396 11.7694C16.9213 11.6483 17.0705 11.4844 17.174 11.2921C17.2776 11.0998 17.3323 10.885 17.3334 10.6667C17.3284 10.3136 17.1903 9.97551 16.9467 9.72C16.8199 9.59861 16.6704 9.50346 16.5067 9.44ZM16 2.66667C13.3629 2.66667 10.7851 3.44865 8.59242 4.91374C6.39977 6.37883 4.6908 8.46121 3.68163 10.8976C2.67246 13.3339 2.40842 16.0148 2.92289 18.6012C3.43736 21.1876 4.70724 23.5634 6.57194 25.4281C8.43664 27.2928 10.8124 28.5627 13.3988 29.0771C15.9852 29.5916 18.6661 29.3276 21.1025 28.3184C23.5388 27.3092 25.6212 25.6003 27.0863 23.4076C28.5514 21.2149 29.3334 18.6371 29.3334 16C29.3334 14.249 28.9885 12.5152 28.3184 10.8976C27.6484 9.27988 26.6662 7.81003 25.4281 6.57191C24.19 5.3338 22.7201 4.35167 21.1025 3.68161C19.4848 3.01154 17.751 2.66667 16 2.66667ZM16 26.6667C13.8904 26.6667 11.8281 26.0411 10.0739 24.869C8.31982 23.6969 6.95265 22.031 6.14531 20.082C5.33798 18.1329 5.12674 15.9882 5.53832 13.919C5.94989 11.8499 6.96579 9.94929 8.45755 8.45753C9.94931 6.96577 11.8499 5.94987 13.9191 5.53829C15.9882 5.12672 18.1329 5.33795 20.082 6.14529C22.0311 6.95262 23.697 8.31979 24.869 10.0739C26.0411 11.828 26.6667 13.8903 26.6667 16C26.6667 18.829 25.5429 21.5421 23.5425 23.5425C21.5421 25.5429 18.829 26.6667 16 26.6667Z" fill="white"/>
</svg>
