<svg width="40" height="40" viewBox="0 0 40 40" fill="none" xmlns="http://www.w3.org/2000/svg">
<path d="M10.8375 11.6253C10.9396 10.6049 10.9906 10.0947 11.0836 9.65972C11.8039 6.29276 14.5978 3.76437 18.0197 3.38266C18.4618 3.33334 18.9745 3.33334 20 3.33334C21.0255 3.33334 21.5383 3.33334 21.9804 3.38266C25.4023 3.76437 28.1961 6.29276 28.9165 9.65972C29.0095 10.0947 29.0605 10.6049 29.1626 11.6253L29.6403 16.4022C29.8008 18.0078 29.8811 18.8106 30.1157 19.5731C30.1869 19.8045 30.2685 20.0325 30.3604 20.2565C30.6631 20.9946 31.1106 21.6659 32.0057 23.0085L34.5938 26.8906C35.5063 28.2594 35.9625 28.9437 35.6799 29.4719C35.3972 30 34.5747 30 32.9297 30H7.07041C5.42538 30 4.60287 30 4.32022 29.4719C4.03756 28.9437 4.49381 28.2594 5.40631 26.8906L7.99439 23.0085C8.88945 21.6659 9.33698 20.9946 9.6397 20.2565C9.73157 20.0325 9.81322 19.8045 9.88441 19.5731C10.119 18.8106 10.1993 18.0078 10.3598 16.4022L10.8375 11.6253Z" fill="white"/>
<path d="M16.7803 34.3823C16.9702 34.5595 17.3887 34.7161 17.9708 34.8278C18.553 34.9395 19.2663 35 20 35C20.7338 35 21.4471 34.9395 22.0292 34.8278C22.6114 34.7161 23.0299 34.5595 23.2198 34.3823" stroke="white" stroke-width="2" stroke-linecap="round"/>
</svg>
