<svg width="32" height="32" viewBox="0 0 32 32" fill="none" xmlns="http://www.w3.org/2000/svg">
<path d="M10.7159 2.68556C9.97994 2.68556 9.38261 3.28289 9.38261 4.01889C6.43461 4.01889 4.00793 6.40956 4.00793 9.35223V12.0189L4.04928 22.6856C4.04928 25.6269 6.43728 28.0189 9.38261 28.0189H22.7159C25.6613 28.0189 28.0493 25.6309 28.0493 22.6856L28.0079 12.0189V9.35223C28.0079 6.40423 25.6586 4.01889 22.7159 4.01889C22.7159 3.28289 22.1199 2.68556 21.3826 2.68556C20.6466 2.68556 20.0493 3.28289 20.0493 4.01889H12.0493C12.0493 3.28289 11.4533 2.68556 10.7159 2.68556ZM9.38261 6.68556C9.38261 7.42156 9.97994 8.01889 10.7159 8.01889C11.4533 8.01889 12.0493 7.42156 12.0493 6.68556H20.0493C20.0493 7.42156 20.6466 8.01889 21.3826 8.01889C22.1199 8.01889 22.7159 7.42156 22.7159 6.68556C24.1786 6.68556 25.3413 7.86956 25.3413 9.35223V10.6856C22.7759 10.6856 9.23993 10.6856 6.6746 10.6856V9.35223C6.6746 7.88956 7.89994 6.68556 9.38261 6.68556ZM6.6746 13.3522C9.23993 13.3522 22.7759 13.3522 25.3413 13.3522L25.3826 22.6856C25.3826 24.1536 24.1893 25.3522 22.7159 25.3522H9.38261C7.91061 25.3522 6.71594 24.1589 6.71594 22.6856L6.6746 13.3522Z" fill="white"/>
</svg>
