<svg width="32" height="32" viewBox="0 0 32 32" fill="none" xmlns="http://www.w3.org/2000/svg">
<path d="M8.33143 11.9134L10.0996 15.0077C10.3765 15.4922 10.5149 15.7344 10.5149 16C10.5149 16.2656 10.3765 16.5078 10.0996 16.9923L8.33142 20.0866C7.09312 22.2537 6.47397 23.3372 6.95679 23.8745C7.43962 24.4118 8.58293 23.9116 10.8696 22.9112L22.4785 17.8323C24.274 17.0468 25.1718 16.654 25.1718 16C25.1718 15.346 24.274 14.9532 22.4785 14.1677L10.8695 9.08877C8.58293 8.08837 7.43962 7.58817 6.95679 8.12549C6.47397 8.66281 7.09312 9.74633 8.33143 11.9134Z" stroke="white" stroke-width="2"/>
</svg>
