<svg width="32" height="32" viewBox="0 0 32 32" fill="none" xmlns="http://www.w3.org/2000/svg">
<path d="M12 17.3333H14.6667V20C14.6667 20.3536 14.8072 20.6928 15.0572 20.9428C15.3073 21.1929 15.6464 21.3333 16 21.3333C16.3536 21.3333 16.6928 21.1929 16.9428 20.9428C17.1929 20.6928 17.3334 20.3536 17.3334 20V17.3333H20C20.3536 17.3333 20.6928 17.1929 20.9428 16.9428C21.1929 16.6928 21.3334 16.3536 21.3334 16C21.3334 15.6464 21.1929 15.3072 20.9428 15.0572C20.6928 14.8071 20.3536 14.6667 20 14.6667H17.3334V12C17.3334 11.6464 17.1929 11.3072 16.9428 11.0572C16.6928 10.8071 16.3536 10.6667 16 10.6667C15.6464 10.6667 15.3073 10.8071 15.0572 11.0572C14.8072 11.3072 14.6667 11.6464 14.6667 12V14.6667H12C11.6464 14.6667 11.3073 14.8071 11.0572 15.0572C10.8072 15.3072 10.6667 15.6464 10.6667 16C10.6667 16.3536 10.8072 16.6928 11.0572 16.9428C11.3073 17.1929 11.6464 17.3333 12 17.3333ZM28 2.66667H4.00002C3.6464 2.66667 3.30726 2.80715 3.05721 3.0572C2.80716 3.30724 2.66669 3.64638 2.66669 4.00001V28C2.66669 28.3536 2.80716 28.6928 3.05721 28.9428C3.30726 29.1929 3.6464 29.3333 4.00002 29.3333H28C28.3536 29.3333 28.6928 29.1929 28.9428 28.9428C29.1929 28.6928 29.3334 28.3536 29.3334 28V4.00001C29.3334 3.64638 29.1929 3.30724 28.9428 3.0572C28.6928 2.80715 28.3536 2.66667 28 2.66667ZM26.6667 26.6667H5.33335V5.33334H26.6667V26.6667Z" fill="#D9D9D9"/>
</svg>
