<svg width="28" height="28" viewBox="0 0 28 28" fill="none" xmlns="http://www.w3.org/2000/svg">
<path d="M11.3334 15.3333H2.00002C1.6464 15.3333 1.30726 15.4738 1.05721 15.7238C0.807163 15.9739 0.666687 16.313 0.666687 16.6667V26C0.666687 26.3536 0.807163 26.6928 1.05721 26.9428C1.30726 27.1929 1.6464 27.3333 2.00002 27.3333H11.3334C11.687 27.3333 12.0261 27.1929 12.2762 26.9428C12.5262 26.6928 12.6667 26.3536 12.6667 26V16.6667C12.6667 16.313 12.5262 15.9739 12.2762 15.7238C12.0261 15.4738 11.687 15.3333 11.3334 15.3333ZM10 24.6667H3.33335V18H10V24.6667ZM26 0.666656H16.6667C16.3131 0.666656 15.9739 0.807132 15.7239 1.05718C15.4738 1.30723 15.3334 1.64637 15.3334 1.99999V11.3333C15.3334 11.6869 15.4738 12.0261 15.7239 12.2761C15.9739 12.5262 16.3131 12.6667 16.6667 12.6667H26C26.3536 12.6667 26.6928 12.5262 26.9428 12.2761C27.1929 12.0261 27.3334 11.6869 27.3334 11.3333V1.99999C27.3334 1.64637 27.1929 1.30723 26.9428 1.05718C26.6928 0.807132 26.3536 0.666656 26 0.666656ZM24.6667 9.99999H18V3.33332H24.6667V9.99999ZM26 15.3333H16.6667C16.3131 15.3333 15.9739 15.4738 15.7239 15.7238C15.4738 15.9739 15.3334 16.313 15.3334 16.6667V26C15.3334 26.3536 15.4738 26.6928 15.7239 26.9428C15.9739 27.1929 16.3131 27.3333 16.6667 27.3333H26C26.3536 27.3333 26.6928 27.1929 26.9428 26.9428C27.1929 26.6928 27.3334 26.3536 27.3334 26V16.6667C27.3334 16.313 27.1929 15.9739 26.9428 15.7238C26.6928 15.4738 26.3536 15.3333 26 15.3333ZM24.6667 24.6667H18V18H24.6667V24.6667ZM11.3334 0.666656H2.00002C1.6464 0.666656 1.30726 0.807132 1.05721 1.05718C0.807163 1.30723 0.666687 1.64637 0.666687 1.99999V11.3333C0.666687 11.6869 0.807163 12.0261 1.05721 12.2761C1.30726 12.5262 1.6464 12.6667 2.00002 12.6667H11.3334C11.687 12.6667 12.0261 12.5262 12.2762 12.2761C12.5262 12.0261 12.6667 11.6869 12.6667 11.3333V1.99999C12.6667 1.64637 12.5262 1.30723 12.2762 1.05718C12.0261 0.807132 11.687 0.666656 11.3334 0.666656ZM10 9.99999H3.33335V3.33332H10V9.99999Z" fill="#F36804"/>
</svg>
