<svg width="26" height="26" viewBox="0 0 26 26" fill="none" xmlns="http://www.w3.org/2000/svg">
<path d="M15.8954 25H6.33333C3.81918 25 2.5621 25 1.78105 24.219C1 23.4379 1 22.1808 1 19.6667V6.33333C1 3.81918 1 2.5621 1.78105 1.78105C2.5621 0.999999 3.81918 0.999999 6.33333 0.999999H19.6667C22.1808 0.999999 23.4379 0.999999 24.219 1.78105C25 2.5621 25 3.81918 25 6.33333V15.8954C25 16.4404 25 16.7129 24.8985 16.958C24.797 17.203 24.6043 17.3957 24.219 17.781L17.781 24.219C17.3957 24.6043 17.203 24.797 16.958 24.8985C16.7129 25 16.4404 25 15.8954 25Z" stroke="white" stroke-width="2"/>
</svg>
