<svg width="26" height="26" viewBox="0 0 26 26" fill="none" xmlns="http://www.w3.org/2000/svg">
<path d="M24.3375 19.0375L21.75 16.3875C21.1934 15.8584 20.4913 15.5079 19.734 15.3809C18.9767 15.254 18.1987 15.3564 17.5 15.675L16.375 14.55C17.7007 12.7786 18.3061 10.5708 18.0694 8.37103C17.8327 6.17123 16.7715 4.14277 15.0993 2.69399C13.4271 1.24521 11.2682 0.483684 9.05707 0.562718C6.84598 0.641753 4.74692 1.55548 3.18245 3.11995C1.61798 4.68442 0.704253 6.78348 0.625218 8.99457C0.546184 11.2057 1.30771 13.3646 2.75649 15.0368C4.20527 16.709 6.23373 17.7702 8.43353 18.0069C10.6333 18.2436 12.8411 17.6382 14.6125 16.3125L15.725 17.425C15.3689 18.1245 15.2412 18.9182 15.3601 19.6941C15.4789 20.4701 15.8383 21.1891 16.3875 21.75L19.0375 24.4C19.7406 25.1022 20.6937 25.4967 21.6875 25.4967C22.6812 25.4967 23.6344 25.1022 24.3375 24.4C24.6947 24.0507 24.9785 23.6337 25.1722 23.1732C25.366 22.7128 25.4658 22.2183 25.4658 21.7187C25.4658 21.2192 25.366 20.7247 25.1722 20.2643C24.9785 19.8038 24.6947 19.3867 24.3375 19.0375ZM13.7375 13.7375C12.8628 14.61 11.7491 15.2037 10.5372 15.4436C9.32521 15.6834 8.06936 15.5587 6.92824 15.0852C5.78712 14.6117 4.81194 13.8106 4.12588 12.7832C3.43982 11.7557 3.07366 10.5479 3.07366 9.31249C3.07366 8.07703 3.43982 6.86928 4.12588 5.84182C4.81194 4.81435 5.78712 4.01327 6.92824 3.53975C8.06936 3.06624 9.32521 2.94155 10.5372 3.18143C11.7491 3.4213 12.8628 4.01499 13.7375 4.88749C14.3195 5.46806 14.7813 6.15775 15.0964 6.91707C15.4115 7.67638 15.5737 8.4904 15.5737 9.31249C15.5737 10.1346 15.4115 10.9486 15.0964 11.7079C14.7813 12.4672 14.3195 13.1569 13.7375 13.7375ZM22.575 22.575C22.4588 22.6922 22.3205 22.7851 22.1682 22.8486C22.0159 22.9121 21.8525 22.9447 21.6875 22.9447C21.5225 22.9447 21.3591 22.9121 21.2068 22.8486C21.0544 22.7851 20.9162 22.6922 20.8 22.575L18.15 19.925C18.0328 19.8088 17.9398 19.6705 17.8764 19.5182C17.8129 19.3659 17.7802 19.2025 17.7802 19.0375C17.7802 18.8725 17.8129 18.7091 17.8764 18.5568C17.9398 18.4044 18.0328 18.2662 18.15 18.15C18.2662 18.0328 18.4044 17.9398 18.5568 17.8764C18.7091 17.8129 18.8725 17.7802 19.0375 17.7802C19.2025 17.7802 19.3659 17.8129 19.5182 17.8764C19.6705 17.9398 19.8088 18.0328 19.925 18.15L22.575 20.8C22.6921 20.9162 22.7851 21.0544 22.8486 21.2068C22.9121 21.3591 22.9447 21.5225 22.9447 21.6875C22.9447 21.8525 22.9121 22.0159 22.8486 22.1682C22.7851 22.3205 22.6921 22.4588 22.575 22.575Z" fill="black"/>
</svg>
